<svg xmlns="http://www.w3.org/2000/svg" width="920" height="310" viewBox="-80 0 1000 310">
<defs>
  <linearGradient id="g-sherpa" x1="0" y1="0" x2="1" y2="0">
    <stop offset="0%" stop-color="#34d399"/><stop offset="100%" stop-color="#059669"/>
  </linearGradient>
  <linearGradient id="g-stream" x1="0" y1="0" x2="1" y2="0">
    <stop offset="0%" stop-color="#22d3ee"/><stop offset="100%" stop-color="#0891b2"/>
  </linearGradient>
  <linearGradient id="g-whisperkit" x1="0" y1="0" x2="1" y2="0">
    <stop offset="0%" stop-color="#60a5fa"/><stop offset="100%" stop-color="#2563eb"/>
  </linearGradient>
  <linearGradient id="accent" x1="0" y1="0" x2="1" y2="0">
    <stop offset="0%" stop-color="#3b82f6"/><stop offset="100%" stop-color="#8b5cf6"/>
  </linearGradient>
</defs>
<style>
  text { font-family: -apple-system, BlinkMacSystemFont, 'SF Pro Display', 'Segoe UI', Helvetica, sans-serif; }
</style>

<!-- Card background -->
<rect x="-80" width="1000" height="310" rx="12" fill="white"/>
<rect x="-79" y="1" width="998" height="308" rx="11" fill="white" stroke="#e2e8f0" stroke-width="1"/>

<!-- Accent bar at top -->
<rect x="-79" y="1" width="998" height="5" rx="11" fill="url(#accent)" style="clip-path: inset(0 0 0 0 round 11px 11px 0 0)"/>

<!-- Title -->
<text x="270" y="34" font-size="18" font-weight="700" fill="#111827">iOS Inference Speed (tok/s)</text>
<text x="270" y="52" font-size="11" fill="#9ca3af">iPad Pro 3rd gen (A12X) · 30 s English audio · sorted by throughput</text>

<!-- Grid lines -->
<line x1="270" y1="66" x2="270" y2="222" stroke="#e5e7eb" stroke-width="1"/>
<line x1="444" y1="66" x2="444" y2="222" stroke="#f1f5f9" stroke-width="1"/>
<line x1="618" y1="66" x2="618" y2="222" stroke="#f1f5f9" stroke-width="1"/>
<line x1="793" y1="66" x2="793" y2="222" stroke="#f1f5f9" stroke-width="1"/>

<!-- X-axis -->
<line x1="270" y1="222" x2="840" y2="222" stroke="#e5e7eb" stroke-width="1"/>
<text x="270" y="238" text-anchor="middle" font-size="9" fill="#9ca3af">0</text>
<text x="444" y="238" text-anchor="middle" font-size="9" fill="#9ca3af">20</text>
<text x="618" y="238" text-anchor="middle" font-size="9" fill="#9ca3af">40</text>
<text x="793" y="238" text-anchor="middle" font-size="9" fill="#9ca3af">60</text>
<text x="850" y="238" font-size="9" fill="#b0b8c4">tok/s &#x2192;</text>

<!-- Row 0: Zipformer 20M — 64.2 tok/s — streaming -->
<text x="260" y="87" text-anchor="end" font-size="11" fill="#374151">Zipformer 20M</text>
<rect x="270" y="72" width="560" height="22" rx="5" fill="url(#g-stream)"/>
<text x="836" y="87" font-size="10" font-weight="600" fill="#1f2937">64.2 tok/s</text>

<!-- Row 1: Moonshine Tiny — 53.0 tok/s — sherpa offline -->
<rect x="-80" y="98" width="1000" height="30" fill="#f8fafc"/>
<text x="260" y="117" text-anchor="end" font-size="11" fill="#374151">Moonshine Tiny</text>
<rect x="270" y="102" width="463" height="22" rx="5" fill="url(#g-sherpa)"/>
<text x="739" y="117" font-size="10" font-weight="600" fill="#1f2937">53.0 tok/s</text>

<!-- Row 2: Moonshine Base — 36.3 tok/s — sherpa offline -->
<text x="260" y="147" text-anchor="end" font-size="11" fill="#374151">Moonshine Base</text>
<rect x="270" y="132" width="317" height="22" rx="5" fill="url(#g-sherpa)"/>
<text x="593" y="147" font-size="10" font-weight="600" fill="#1f2937">36.3 tok/s</text>

<!-- Row 3: SenseVoice Small — 13.8 tok/s — sherpa offline -->
<rect x="-80" y="158" width="1000" height="30" fill="#f8fafc"/>
<text x="260" y="177" text-anchor="end" font-size="11" fill="#374151">SenseVoice Small</text>
<rect x="270" y="162" width="121" height="22" rx="5" fill="url(#g-sherpa)"/>
<text x="397" y="177" font-size="10" font-weight="600" fill="#1f2937">13.8 tok/s</text>

<!-- Row 4: Whisper Tiny — 3.2 tok/s — WhisperKit -->
<text x="260" y="207" text-anchor="end" font-size="11" fill="#374151">Whisper Tiny</text>
<rect x="270" y="192" width="28" height="22" rx="5" fill="url(#g-whisperkit)"/>
<text x="304" y="207" font-size="10" font-weight="600" fill="#1f2937">3.2 tok/s</text>

<!-- Legend -->
<circle cx="270" cy="264" r="5" fill="#0891b2"/>
<text x="280" y="268" font-size="10" fill="#6b7280">sherpa-onnx Streaming</text>
<circle cx="410" cy="264" r="5" fill="#059669"/>
<text x="420" y="268" font-size="10" fill="#6b7280">sherpa-onnx Offline</text>
<circle cx="540" cy="264" r="5" fill="#2563eb"/>
<text x="550" y="268" font-size="10" fill="#6b7280">WhisperKit CoreML</text>

<!-- Benchmark info -->
<text x="270" y="294" font-size="9" fill="#c4cad2">5 of 15 models benchmarked · Feb 2026</text>
</svg>
