<svg xmlns="http://www.w3.org/2000/svg" width="920" height="560" viewBox="-80 0 1000 560">
<defs>
  <linearGradient id="g-sherpa" x1="0" y1="0" x2="1" y2="0">
    <stop offset="0%" stop-color="#34d399"/><stop offset="100%" stop-color="#059669"/>
  </linearGradient>
  <linearGradient id="g-stream" x1="0" y1="0" x2="1" y2="0">
    <stop offset="0%" stop-color="#22d3ee"/><stop offset="100%" stop-color="#0891b2"/>
  </linearGradient>
  <linearGradient id="g-whisperkit" x1="0" y1="0" x2="1" y2="0">
    <stop offset="0%" stop-color="#60a5fa"/><stop offset="100%" stop-color="#2563eb"/>
  </linearGradient>
  <linearGradient id="g-fluid" x1="0" y1="0" x2="1" y2="0">
    <stop offset="0%" stop-color="#a78bfa"/><stop offset="100%" stop-color="#7c3aed"/>
  </linearGradient>
  <linearGradient id="g-qwen-cpu" x1="0" y1="0" x2="1" y2="0">
    <stop offset="0%" stop-color="#f472b6"/><stop offset="100%" stop-color="#db2777"/>
  </linearGradient>
  <linearGradient id="g-qwen-onnx" x1="0" y1="0" x2="1" y2="0">
    <stop offset="0%" stop-color="#fb923c"/><stop offset="100%" stop-color="#ea580c"/>
  </linearGradient>
  <linearGradient id="g-system" x1="0" y1="0" x2="1" y2="0">
    <stop offset="0%" stop-color="#818cf8"/><stop offset="100%" stop-color="#4f46e5"/>
  </linearGradient>
  <linearGradient id="accent" x1="0" y1="0" x2="1" y2="0">
    <stop offset="0%" stop-color="#3b82f6"/><stop offset="100%" stop-color="#8b5cf6"/>
  </linearGradient>
</defs>
<style>
  text { font-family: -apple-system, BlinkMacSystemFont, 'SF Pro Display', 'Segoe UI', Helvetica, sans-serif; }
</style>

<!-- Card -->
<rect x="-80" width="1000" height="560" rx="12" fill="white"/>
<rect x="-79" y="1" width="998" height="558" rx="11" fill="white" stroke="#e2e8f0" stroke-width="1"/>
<rect x="-79" y="1" width="998" height="5" rx="11" fill="url(#accent)" style="clip-path: inset(0 0 0 0 round 11px 11px 0 0)"/>

<!-- Title -->
<text x="270" y="34" font-size="18" font-weight="700" fill="#111827">macOS Inference Speed (tok/s)</text>
<text x="270" y="52" font-size="11" fill="#9ca3af">MacBook Air M4 · 30 s English audio · Low Power Mode · sorted by throughput</text>

<!-- Grid lines (0, 50, 100, 150) scale: 560/171.55 = 3.264 -->
<line x1="270" y1="66" x2="270" y2="458" stroke="#e5e7eb" stroke-width="1"/>
<line x1="433" y1="66" x2="433" y2="458" stroke="#f1f5f9" stroke-width="1"/>
<line x1="597" y1="66" x2="597" y2="458" stroke="#f1f5f9" stroke-width="1"/>
<line x1="760" y1="66" x2="760" y2="458" stroke="#f1f5f9" stroke-width="1"/>

<!-- X-axis -->
<line x1="270" y1="458" x2="840" y2="458" stroke="#e5e7eb" stroke-width="1"/>
<text x="270" y="474" text-anchor="middle" font-size="9" fill="#9ca3af">0</text>
<text x="433" y="474" text-anchor="middle" font-size="9" fill="#9ca3af">50</text>
<text x="597" y="474" text-anchor="middle" font-size="9" fill="#9ca3af">100</text>
<text x="760" y="474" text-anchor="middle" font-size="9" fill="#9ca3af">150</text>
<text x="850" y="474" font-size="9" fill="#b0b8c4">tok/s &#x2192;</text>

<!-- Row 0: Parakeet TDT v3 — 171.5 tok/s — FluidAudio -->
<text x="260" y="87" text-anchor="end" font-size="11" fill="#374151">Parakeet TDT v3</text>
<rect x="270" y="72" width="560" height="22" rx="5" fill="url(#g-fluid)"/>
<text x="836" y="87" font-size="10" font-weight="600" fill="#1f2937">171.5 tok/s</text>

<!-- Row 1: Moonshine Tiny — 92.2 tok/s — sherpa offline -->
<rect x="-80" y="98" width="1000" height="30" fill="#f8fafc"/>
<text x="260" y="117" text-anchor="end" font-size="11" fill="#374151">Moonshine Tiny</text>
<rect x="270" y="102" width="301" height="22" rx="5" fill="url(#g-sherpa)"/>
<text x="577" y="117" font-size="10" font-weight="600" fill="#1f2937">92.2 tok/s</text>

<!-- Row 2: Zipformer 20M — 77.4 tok/s — streaming -->
<text x="260" y="147" text-anchor="end" font-size="11" fill="#374151">Zipformer 20M</text>
<rect x="270" y="132" width="253" height="22" rx="5" fill="url(#g-stream)"/>
<text x="529" y="147" font-size="10" font-weight="600" fill="#1f2937">77.4 tok/s</text>

<!-- Row 3: Moonshine Base — 59.3 tok/s — sherpa offline -->
<rect x="-80" y="158" width="1000" height="30" fill="#f8fafc"/>
<text x="260" y="177" text-anchor="end" font-size="11" fill="#374151">Moonshine Base</text>
<rect x="270" y="162" width="194" height="22" rx="5" fill="url(#g-sherpa)"/>
<text x="470" y="177" font-size="10" font-weight="600" fill="#1f2937">59.3 tok/s</text>

<!-- Row 4: SenseVoice Small — 27.4 tok/s — sherpa offline -->
<text x="260" y="207" text-anchor="end" font-size="11" fill="#374151">SenseVoice Small</text>
<rect x="270" y="192" width="89" height="22" rx="5" fill="url(#g-sherpa)"/>
<text x="365" y="207" font-size="10" font-weight="600" fill="#1f2937">27.4 tok/s</text>

<!-- Row 5: Whisper Tiny — 24.7 tok/s — WhisperKit -->
<rect x="-80" y="218" width="1000" height="30" fill="#f8fafc"/>
<text x="260" y="237" text-anchor="end" font-size="11" fill="#374151">Whisper Tiny</text>
<rect x="270" y="222" width="81" height="22" rx="5" fill="url(#g-whisperkit)"/>
<text x="357" y="237" font-size="10" font-weight="600" fill="#1f2937">24.7 tok/s</text>

<!-- Row 6: Whisper Base — 23.3 tok/s — WhisperKit -->
<text x="260" y="267" text-anchor="end" font-size="11" fill="#374151">Whisper Base</text>
<rect x="270" y="252" width="76" height="22" rx="5" fill="url(#g-whisperkit)"/>
<text x="352" y="267" font-size="10" font-weight="600" fill="#1f2937">23.3 tok/s</text>

<!-- Row 7: Apple Speech — 13.1 tok/s — system -->
<rect x="-80" y="278" width="1000" height="30" fill="#f8fafc"/>
<text x="260" y="297" text-anchor="end" font-size="11" fill="#374151">Apple Speech</text>
<rect x="270" y="282" width="43" height="22" rx="5" fill="url(#g-system)"/>
<text x="319" y="297" font-size="10" font-weight="600" fill="#1f2937">13.1 tok/s</text>

<!-- Row 8: Whisper Small — 8.7 tok/s — WhisperKit -->
<text x="260" y="327" text-anchor="end" font-size="11" fill="#374151">Whisper Small</text>
<rect x="270" y="312" width="28" height="22" rx="5" fill="url(#g-whisperkit)"/>
<text x="304" y="327" font-size="10" font-weight="600" fill="#1f2937">8.7 tok/s</text>

<!-- Row 9: Qwen3 ASR 0.6B (ONNX) — 7.9 tok/s -->
<rect x="-80" y="338" width="1000" height="30" fill="#f8fafc"/>
<text x="260" y="357" text-anchor="end" font-size="11" fill="#374151">Qwen3 ASR 0.6B (ONNX)</text>
<rect x="270" y="342" width="26" height="22" rx="5" fill="url(#g-qwen-onnx)"/>
<text x="302" y="357" font-size="10" font-weight="600" fill="#1f2937">7.9 tok/s</text>

<!-- Row 10: Qwen3 ASR 0.6B (CPU) — 5.7 tok/s -->
<text x="260" y="387" text-anchor="end" font-size="11" fill="#374151">Qwen3 ASR 0.6B (CPU)</text>
<rect x="270" y="372" width="19" height="22" rx="5" fill="url(#g-qwen-cpu)"/>
<text x="295" y="387" font-size="10" font-weight="600" fill="#1f2937">5.7 tok/s</text>

<!-- Row 11: Whisper Large V3 Turbo — 1.9 tok/s — WhisperKit -->
<rect x="-80" y="398" width="1000" height="30" fill="#f8fafc"/>
<text x="260" y="417" text-anchor="end" font-size="11" fill="#374151">Whisper Large V3 Turbo</text>
<rect x="270" y="402" width="6" height="22" rx="3" fill="url(#g-whisperkit)"/>
<text x="282" y="417" font-size="10" font-weight="600" fill="#1f2937">1.9 tok/s</text>

<!-- Row 12: Whisper LV3 Turbo Compressed — 1.5 tok/s — WhisperKit -->
<text x="260" y="447" text-anchor="end" font-size="11" fill="#374151">Whisper LV3 Turbo Compressed</text>
<rect x="270" y="432" width="5" height="22" rx="3" fill="url(#g-whisperkit)"/>
<text x="281" y="447" font-size="10" font-weight="600" fill="#1f2937">1.5 tok/s</text>

<!-- Legend -->
<circle cx="270" cy="500" r="5" fill="#7c3aed"/>
<text x="280" y="504" font-size="10" fill="#6b7280">FluidAudio CoreML</text>
<circle cx="390" cy="500" r="5" fill="#059669"/>
<text x="400" y="504" font-size="10" fill="#6b7280">sherpa-onnx Offline</text>
<circle cx="520" cy="500" r="5" fill="#0891b2"/>
<text x="530" y="504" font-size="10" fill="#6b7280">Streaming</text>
<circle cx="600" cy="500" r="5" fill="#2563eb"/>
<text x="610" y="504" font-size="10" fill="#6b7280">WhisperKit</text>

<circle cx="270" cy="520" r="5" fill="#4f46e5"/>
<text x="280" y="524" font-size="10" fill="#6b7280">Apple Speech</text>
<circle cx="380" cy="520" r="5" fill="#ea580c"/>
<text x="390" y="524" font-size="10" fill="#6b7280">QwenASR ONNX</text>
<circle cx="500" cy="520" r="5" fill="#db2777"/>
<text x="510" y="524" font-size="10" fill="#6b7280">QwenASR CPU</text>

<!-- Benchmark info -->
<text x="270" y="548" font-size="9" fill="#c4cad2">13 of 15 models benchmarked · Feb 2026</text>
</svg>
